0
SECTION
2
HEADER
9
$INSUNITS
70
4
9
$ACADVER
1
AC1014
9
$HANDSEED
5
FFFF
0
ENDSEC
0
SECTION
2
TABLES
0
TABLE
2
VPORT
5
8
100
AcDbSymbolTable
0
ENDTAB
0
TABLE
2
LTYPE
5
5
100
AcDbSymbolTable
0
LTYPE
5
14
100
AcDbSymbolTableRecord
100
AcDbLinetypeTableRecord
2
BYBLOCK
70
0
0
LTYPE
5
15
100
AcDbSymbolTableRecord
100
AcDbLinetypeTableRecord
2
BYLAYER
70
0
0
ENDTAB
0
TABLE
2
LAYER
5
2
100
AcDbSymbolTable
70
2
0
LAYER
5
50
100
AcDbSymbolTableRecord
100
AcDbLayerTableRecord
2
0
70
0
6
CONTINUOUS
0
ENDTAB
0
TABLE
2
STYLE
5
3
100
AcDbSymbolTable
70
1
0
STYLE
5
11
100
AcDbSymbolTableRecord
100
AcDbTextStyleTableRecord
2
STANDARD
70
0
0
ENDTAB
0
TABLE
2
VIEW
5
6
100
AcDbSymbolTable
70
0
0
ENDTAB
0
TABLE
2
UCS
5
7
100
AcDbSymbolTable
70
0
0
ENDTAB
0
TABLE
2
APPID
5
9
100
AcDbSymbolTable
70
2
0
APPID
5
12
100
AcDbSymbolTableRecord
100
AcDbRegAppTableRecord
2
ACAD
70
0
0
ENDTAB
0
TABLE
2
DIMSTYLE
5
A
100
AcDbSymbolTable
70
1
0
ENDTAB
0
TABLE
2
BLOCK_RECORD
5
1
100
AcDbSymbolTable
70
1
0
BLOCK_RECORD
5
1F
100
AcDbSymbolTableRecord
100
AcDbBlockTableRecord
2
*MODEL_SPACE
0
BLOCK_RECORD
5
1B
100
AcDbSymbolTableRecord
100
AcDbBlockTableRecord
2
*PAPER_SPACE
0
ENDTAB
0
ENDSEC
0
SECTION
2
BLOCKS
0
BLOCK
5
20
100
AcDbEntity
100
AcDbBlockBegin
2
*MODEL_SPACE
0
ENDBLK
5
21
100
AcDbEntity
100
AcDbBlockEnd
0
BLOCK
5
1C
100
AcDbEntity
100
AcDbBlockBegin
2
*PAPER_SPACE
0
ENDBLK
5
1D
100
AcDbEntity
100
AcDbBlockEnd
0
ENDSEC
0
SECTION
2
ENTITIES
0
LWPOLYLINE
5
100
100
AcDbEntity
8
OUTER_PROFILES
100
AcDbPolyline
90
4
70
1
43
0.0
10
0
20
150
10
199.99999999999997
20
150
10
199.99999999999997
20
0
10
0
20
0
0
CIRCLE
5
101
100
AcDbEntity
8
INTERIOR_PROFILES
100
AcDbCircle
10
-169.72599999999989
20
135
30
0
40
5.7500000000000284
210
0
220
0
230
-1
0
CIRCLE
5
102
100
AcDbEntity
8
INTERIOR_PROFILES
100
AcDbCircle
10
-44.725999999999928
20
95.000000000000071
30
0
40
5.7500000000000284
210
0
220
0
230
-1
0
LWPOLYLINE
5
103
100
AcDbEntity
8
INTERIOR_PROFILES
100
AcDbPolyline
90
8
70
1
43
0.0
10
92.998835348286534
20
16.500000000000099
42
-0.41421356237312001
10
89.998835348286491
20
13.499999999999943
10
84.998835348286704
20
13.50000000000005
42
-0.41421356237311174
10
81.998835348286704
20
16.500000000000085
10
81.99883534828659
20
21.500000000000085
42
-0.41421356237311158
10
84.99883534828669
20
24.500000000000099
10
89.998835348286562
20
24.499999999999815
42
-0.41421356237310458
10
92.998835348286462
20
21.500000000000099
0
CIRCLE
5
104
100
AcDbEntity
8
INTERIOR_PROFILES
100
AcDbCircle
10
-160.89223363048842
20
14.893398282201545
30
0
40
2.5
210
0
220
0
230
-1
0
LWPOLYLINE
5
105
100
AcDbEntity
8
INTERIOR_PROFILES
100
AcDbPolyline
90
8
70
1
43
0.0
10
67.998835348286605
20
44.499999999999858
10
62.99883534828674
20
44.500000000000071
42
0.41421356237311585
10
59.998835348286605
20
41.500000000000057
10
59.998835348286676
20
36.500000000000057
42
0.41421356237310897
10
62.99883534828669
20
33.499999999999986
10
67.998835348286477
20
33.499999999999915
42
0.41421356237312279
10
70.998835348286548
20
36.500000000000071
10
70.998835348286548
20
41.500000000000071
42
0.41421356237310197
0
LWPOLYLINE
5
106
100
AcDbEntity
8
INTERIOR_PROFILES
100
AcDbPolyline
90
8
70
1
43
0.0
10
62.99883534828669
20
13.499999999999988
10
67.998835348286477
20
13.499999999999917
42
0.41421356237312262
10
70.998835348286548
20
16.500000000000071
10
70.998835348286477
20
21.500000000000075
42
0.41421356237310197
10
67.998835348286605
20
24.499999999999787
10
62.99883534828674
20
24.500000000000071
42
0.41421356237311585
10
59.998835348286605
20
21.500000000000057
10
59.998835348286676
20
16.500000000000057
42
0.41421356237310897
0
CIRCLE
5
107
100
AcDbEntity
8
INTERIOR_PROFILES
100
AcDbCircle
10
-137.4988353482866
20
49.000000000000021
30
0
40
2.0999999999999375
210
0
220
0
230
-1
0
CIRCLE
5
108
100
AcDbEntity
8
INTERIOR_PROFILES
100
AcDbCircle
10
-148.4988353482866
20
31.749999999999812
30
0
40
2.5
210
0
220
0
230
-1
0
CIRCLE
5
109
100
AcDbEntity
8
INTERIOR_PROFILES
100
AcDbCircle
10
-24.725999999999971
20
122.25000000000016
30
0
40
2.5
210
0
220
0
230
-1
0
CIRCLE
5
110
100
AcDbEntity
8
INTERIOR_PROFILES
100
AcDbCircle
10
-148.4988353482866
20
38.999999999999901
30
0
40
2.0999999999999375
210
0
220
0
230
-1
0
CIRCLE
5
111
100
AcDbEntity
8
INTERIOR_PROFILES
100
AcDbCircle
10
-24.725999999999928
20
135.00000000000006
30
0
40
5.7500000000000284
210
0
220
0
230
-1
0
CIRCLE
5
112
100
AcDbEntity
8
INTERIOR_PROFILES
100
AcDbCircle
10
-117.99883534828658
20
28.999999999999886
30
0
40
2.1000000000000796
210
0
220
0
230
-1
0
CIRCLE
5
113
100
AcDbEntity
8
INTERIOR_PROFILES
100
AcDbCircle
10
-98.498835348286619
20
29.000000000000039
30
0
40
2.1000000000000796
210
0
220
0
230
-1
0
CIRCLE
5
114
100
AcDbEntity
8
INTERIOR_PROFILES
100
AcDbCircle
10
-36.302744315990871
20
8.0000000000000639
30
0
40
2.0999999999999375
210
0
220
0
230
-1
0
CIRCLE
5
115
100
AcDbEntity
8
INTERIOR_PROFILES
100
AcDbCircle
10
-179.63056333193185
20
44.368272016354524
30
0
40
2.0999999999999179
210
0
220
0
230
-1
0
CIRCLE
5
116
100
AcDbEntity
8
INTERIOR_PROFILES
100
AcDbCircle
10
-76.498835348286548
20
49.000000000000156
30
0
40
2.1000000000000796
210
0
220
0
230
-1
0
LWPOLYLINE
5
117
100
AcDbEntity
8
INTERIOR_PROFILES
100
AcDbPolyline
90
8
70
1
43
0.0
10
59.998835348286605
20
61.500000000000057
42
-0.41421356237311585
10
62.99883534828674
20
64.500000000000071
10
67.998835348286605
20
64.499999999999787
42
-0.41421356237310197
10
70.998835348286477
20
61.500000000000071
10
70.998835348286548
20
56.500000000000071
42
-0.41421356237312279
10
67.998835348286477
20
53.499999999999915
10
62.99883534828669
20
53.499999999999986
42
-0.41421356237310897
10
59.998835348286676
20
56.500000000000057
0
LWPOLYLINE
5
118
100
AcDbEntity
8
INTERIOR_PROFILES
100
AcDbPolyline
90
8
70
1
43
0.0
10
120.99883534828662
20
61.500000000000064
42
-0.41421356237311158
10
123.99883534828672
20
64.500000000000085
10
128.99883534828658
20
64.499999999999801
42
-0.41421356237310458
10
131.99883534828649
20
61.500000000000085
10
131.99883534828655
20
56.500000000000085
42
-0.41421356237311846
10
128.99883534828655
20
53.499999999999929
10
123.99883534828673
20
53.5
42
-0.41421356237311241
10
120.99883534828669
20
56.500000000000071
0
LWPOLYLINE
5
119
100
AcDbEntity
8
INTERIOR_PROFILES
100
AcDbPolyline
90
8
70
1
43
0.0
10
131.99883534828655
20
16.500000000000089
10
131.99883534828649
20
21.500000000000089
42
0.41421356237310458
10
128.99883534828658
20
24.499999999999801
10
123.99883534828672
20
24.500000000000085
42
0.41421356237311158
10
120.99883534828662
20
21.500000000000071
10
120.99883534828669
20
16.500000000000075
42
0.41421356237311191
10
123.99883534828673
20
13.5
10
128.99883534828649
20
13.499999999999929
42
0.41421356237312018
0
CIRCLE
5
120
100
AcDbEntity
8
INTERIOR_PROFILES
100
AcDbCircle
10
-51.052744315990935
20
14.250000000000131
30
0
40
2.1250000000000568
210
0
220
0
230
-1
0
LWPOLYLINE
5
121
100
AcDbEntity
8
INTERIOR_PROFILES
100
AcDbPolyline
90
8
70
1
43
0.0
10
84.998835348286704
20
53.500000000000014
10
89.998835348286477
20
53.499999999999943
42
0.41421356237312018
10
92.998835348286534
20
56.500000000000099
10
92.998835348286462
20
61.500000000000099
42
0.41421356237310458
10
89.998835348286562
20
64.499999999999815
10
84.99883534828669
20
64.500000000000099
42
0.41421356237311158
10
81.99883534828659
20
61.500000000000085
10
81.998835348286661
20
56.500000000000085
42
0.41421356237311158
0
CIRCLE
5
122
100
AcDbEntity
8
INTERIOR_PROFILES
100
AcDbCircle
10
-144.72599999999989
20
135.00000000000006
30
0
40
5.7500000000000284
210
0
220
0
230
-1
0
CIRCLE
5
123
100
AcDbEntity
8
INTERIOR_PROFILES
100
AcDbCircle
10
-169.72599999999989
20
95
30
0
40
5.7500000000000284
210
0
220
0
230
-1
0
CIRCLE
5
124
100
AcDbEntity
8
INTERIOR_PROFILES
100
AcDbCircle
10
-69.725999999999928
20
135
30
0
40
5.7500000000000284
210
0
220
0
230
-1
0
CIRCLE
5
125
100
AcDbEntity
8
INTERIOR_PROFILES
100
AcDbCircle
10
-69.725999999999928
20
95
30
0
40
5.7500000000000284
210
0
220
0
230
-1
0
LWPOLYLINE
5
126
100
AcDbEntity
8
INTERIOR_PROFILES
100
AcDbPolyline
90
8
70
1
43
0.0
10
106.9988353482867
20
53.50000000000005
42
-0.41421356237311158
10
103.99883534828666
20
56.500000000000121
10
103.99883534828659
20
61.500000000000121
42
-0.41421356237311158
10
106.99883534828669
20
64.500000000000142
10
111.99883534828656
20
64.499999999999858
42
-0.41421356237310542
10
114.99883534828646
20
61.500000000000128
10
114.99883534828653
20
56.500000000000135
42
-0.41421356237312018
10
111.99883534828649
20
53.499999999999979
0
CIRCLE
5
127
100
AcDbEntity
8
INTERIOR_PROFILES
100
AcDbCircle
10
-171.49883534828666
20
52.49999999999973
30
0
40
8.124999999999984
210
0
220
0
230
-1
0
CIRCLE
5
128
100
AcDbEntity
8
INTERIOR_PROFILES
100
AcDbCircle
10
-144.72599999999989
20
95.000000000000071
30
0
40
5.7500000000000284
210
0
220
0
230
-1
0
CIRCLE
5
129
100
AcDbEntity
8
INTERIOR_PROFILES
100
AcDbCircle
10
-69.725999999999928
20
115
30
0
40
5.7500000000000284
210
0
220
0
230
-1
0
CIRCLE
5
130
100
AcDbEntity
8
INTERIOR_PROFILES
100
AcDbCircle
10
-94.725999999999885
20
95.000000000000071
30
0
40
5.7500000000000284
210
0
220
0
230
-1
0
CIRCLE
5
131
100
AcDbEntity
8
INTERIOR_PROFILES
100
AcDbCircle
10
-119.72599999999989
20
115
30
0
40
5.7500000000000284
210
0
220
0
230
-1
0
CIRCLE
5
132
100
AcDbEntity
8
INTERIOR_PROFILES
100
AcDbCircle
10
-169.72599999999989
20
80
30
0
40
2.5
210
0
220
0
230
-1
0
CIRCLE
5
133
100
AcDbEntity
8
INTERIOR_PROFILES
100
AcDbCircle
10
-21.552744315990839
20
63.750000000000014
30
0
40
2.1250000000000568
210
0
220
0
230
-1
0
CIRCLE
5
134
100
AcDbEntity
8
INTERIOR_PROFILES
100
AcDbCircle
10
-119.72599999999989
20
80
30
0
40
2.5
210
0
220
0
230
-1
0
CIRCLE
5
135
100
AcDbEntity
8
INTERIOR_PROFILES
100
AcDbCircle
10
-51.052744315990864
20
63.750000000000014
30
0
40
2.1250000000000568
210
0
220
0
230
-1
0
CIRCLE
5
136
100
AcDbEntity
8
INTERIOR_PROFILES
100
AcDbCircle
10
-171.49883534828672
20
25.499999999999709
30
0
40
8.1249999999999929
210
0
220
0
230
-1
0
CIRCLE
5
137
100
AcDbEntity
8
INTERIOR_PROFILES
100
AcDbCircle
10
-5.2740000000000009
20
75.000000000000071
30
0
40
2.4000000000000021
210
0
220
0
230
-1
0
CIRCLE
5
138
100
AcDbEntity
8
INTERIOR_PROFILES
100
AcDbCircle
10
-24.725999999999928
20
115.00000000000007
30
0
40
2.0999999999999375
210
0
220
0
230
-1
0
CIRCLE
5
139
100
AcDbEntity
8
INTERIOR_PROFILES
100
AcDbCircle
10
-160.89223363048842
20
41.893398282201574
30
0
40
2.5
210
0
220
0
230
-1
0
CIRCLE
5
140
100
AcDbEntity
8
INTERIOR_PROFILES
100
AcDbCircle
10
-169.72599999999989
20
115
30
0
40
5.7500000000000284
210
0
220
0
230
-1
0
CIRCLE
5
141
100
AcDbEntity
8
INTERIOR_PROFILES
100
AcDbCircle
10
-5.2740000000000009
20
125.00000000000007
30
0
40
2.4000000000000021
210
0
220
0
230
-1
0
CIRCLE
5
142
100
AcDbEntity
8
INTERIOR_PROFILES
100
AcDbCircle
10
-57.225999999999928
20
80.000000000000114
30
0
40
2.0999999999999375
210
0
220
0
230
-1
0
CIRCLE
5
143
100
AcDbEntity
8
INTERIOR_PROFILES
100
AcDbCircle
10
-163.36710736464141
20
60.631727983645249
30
0
40
2.0999999999999055
210
0
220
0
230
-1
0
CIRCLE
5
144
100
AcDbEntity
8
INTERIOR_PROFILES
100
AcDbCircle
10
-76.498835348286548
20
29.000000000000149
30
0
40
2.0999999999999375
210
0
220
0
230
-1
0
CIRCLE
5
145
100
AcDbEntity
8
INTERIOR_PROFILES
100
AcDbCircle
10
-194.72599999999989
20
75.000000000000071
30
0
40
2.3999999999999844
210
0
220
0
230
-1
0
CIRCLE
5
146
100
AcDbEntity
8
INTERIOR_PROFILES
100
AcDbCircle
10
-194.72599999999989
20
125.00000000000007
30
0
40
2.3999999999999844
210
0
220
0
230
-1
0
CIRCLE
5
147
100
AcDbEntity
8
INTERIOR_PROFILES
100
AcDbCircle
10
-44.725999999999928
20
115.00000000000007
30
0
40
5.7500000000000284
210
0
220
0
230
-1
0
CIRCLE
5
148
100
AcDbEntity
8
INTERIOR_PROFILES
100
AcDbCircle
10
-5.2740000000000009
20
25.000000000000078
30
0
40
2.4000000000000021
210
0
220
0
230
-1
0
CIRCLE
5
149
100
AcDbEntity
8
INTERIOR_PROFILES
100
AcDbCircle
10
-137.49883534828666
20
8.0000000000000782
30
0
40
2.0999999999999375
210
0
220
0
230
-1
0
CIRCLE
5
150
100
AcDbEntity
8
INTERIOR_PROFILES
100
AcDbCircle
10
-194.72599999999989
20
25.000000000000071
30
0
40
2.3999999999999844
210
0
220
0
230
-1
0
CIRCLE
5
151
100
AcDbEntity
8
INTERIOR_PROFILES
100
AcDbCircle
10
-137.49883534828663
20
29.000000000000163
30
0
40
2.0999999999999375
210
0
220
0
230
-1
0
CIRCLE
5
152
100
AcDbEntity
8
INTERIOR_PROFILES
100
AcDbCircle
10
-69.725999999999928
20
80
30
0
40
2.5
210
0
220
0
230
-1
0
CIRCLE
5
153
100
AcDbEntity
8
INTERIOR_PROFILES
100
AcDbCircle
10
-98.498835348286548
20
48.999999999999901
30
0
40
2.0999999999999375
210
0
220
0
230
-1
0
CIRCLE
5
154
100
AcDbEntity
8
INTERIOR_PROFILES
100
AcDbCircle
10
-44.725999999999928
20
80.000000000000071
30
0
40
2.5
210
0
220
0
230
-1
0
LWPOLYLINE
5
155
100
AcDbEntity
8
INTERIOR_PROFILES
100
AcDbPolyline
90
8
70
1
43
0.0
10
84.998835348286704
20
33.50000000000005
42
-0.41421356237311158
10
81.998835348286704
20
36.500000000000085
10
81.99883534828659
20
41.500000000000085
42
-0.41421356237311158
10
84.99883534828669
20
44.500000000000099
10
89.998835348286562
20
44.499999999999815
42
-0.41421356237310458
10
92.998835348286462
20
41.500000000000099
10
92.998835348286534
20
36.500000000000099
42
-0.41421356237312196
10
89.998835348286477
20
33.499999999999943
0
CIRCLE
5
156
100
AcDbEntity
8
INTERIOR_PROFILES
100
AcDbCircle
10
-144.72599999999989
20
80.000000000000071
30
0
40
2.5
210
0
220
0
230
-1
0
CIRCLE
5
157
100
AcDbEntity
8
INTERIOR_PROFILES
100
AcDbCircle
10
-24.725999999999893
20
107.74999999999999
30
0
40
2.5
210
0
220
0
230
-1
0
LWPOLYLINE
5
158
100
AcDbEntity
8
INTERIOR_PROFILES
100
AcDbPolyline
90
4
70
1
43
0.0
10
25.302744315990893
20
60.000000000000071
10
25.302744315990857
20
18.000000000000185
10
47.302744315990886
20
18.00000000000022
10
47.302744315990921
20
60.000000000000107
0
CIRCLE
5
159
100
AcDbEntity
8
INTERIOR_PROFILES
100
AcDbCircle
10
-24.725999999999928
20
95.000000000000071
30
0
40
5.7500000000000284
210
0
220
0
230
-1
0
CIRCLE
5
160
100
AcDbEntity
8
INTERIOR_PROFILES
100
AcDbCircle
10
-82.225999999999928
20
80.000000000000028
30
0
40
2.0999999999999375
210
0
220
0
230
-1
0
CIRCLE
5
161
100
AcDbEntity
8
INTERIOR_PROFILES
100
AcDbCircle
10
-157.22599999999989
20
80.000000000000114
30
0
40
2.0999999999999375
210
0
220
0
230
-1
0
CIRCLE
5
162
100
AcDbEntity
8
INTERIOR_PROFILES
100
AcDbCircle
10
-94.725999999999885
20
115.00000000000007
30
0
40
5.7500000000000284
210
0
220
0
230
-1
0
CIRCLE
5
163
100
AcDbEntity
8
INTERIOR_PROFILES
100
AcDbCircle
10
-163.36710736464141
20
33.631727983645213
30
0
40
2.0999999999999024
210
0
220
0
230
-1
0
LWPOLYLINE
5
164
100
AcDbEntity
8
INTERIOR_PROFILES
100
AcDbPolyline
90
8
70
1
43
0.0
10
111.99883534828656
20
44.499999999999915
10
106.99883534828672
20
44.500000000000128
42
0.41421356237311324
10
103.99883534828659
20
41.500000000000114
10
103.99883534828666
20
36.500000000000114
42
0.41421356237311158
10
106.9988353482867
20
33.500000000000043
10
111.99883534828646
20
33.499999999999972
42
0.41421356237312196
10
114.99883534828653
20
36.500000000000135
10
114.99883534828653
20
41.500000000000128
42
0.41421356237310458
0
CIRCLE
5
165
100
AcDbEntity
8
INTERIOR_PROFILES
100
AcDbCircle
10
-144.72599999999989
20
115.00000000000007
30
0
40
5.7500000000000284
210
0
220
0
230
-1
0
CIRCLE
5
166
100
AcDbEntity
8
INTERIOR_PROFILES
100
AcDbCircle
10
-148.49883534828666
20
46.249999999999986
30
0
40
2.5
210
0
220
0
230
-1
0
CIRCLE
5
167
100
AcDbEntity
8
INTERIOR_PROFILES
100
AcDbCircle
10
-117.99883534828665
20
49.000000000000028
30
0
40
2.0999999999999375
210
0
220
0
230
-1
0
CIRCLE
5
168
100
AcDbEntity
8
INTERIOR_PROFILES
100
AcDbCircle
10
-119.72599999999989
20
95
30
0
40
5.7500000000000284
210
0
220
0
230
-1
0
CIRCLE
5
169
100
AcDbEntity
8
INTERIOR_PROFILES
100
AcDbCircle
10
-94.725999999999885
20
80.000000000000071
30
0
40
2.5
210
0
220
0
230
-1
0
LWPOLYLINE
5
170
100
AcDbEntity
8
INTERIOR_PROFILES
100
AcDbPolyline
90
8
70
1
43
0.0
10
120.99883534828662
20
41.500000000000071
10
120.99883534828669
20
36.500000000000071
42
0.41421356237311191
10
123.99883534828673
20
33.5
10
128.99883534828655
20
33.499999999999929
42
0.41421356237311846
10
131.99883534828655
20
36.500000000000085
10
131.99883534828649
20
41.500000000000092
42
0.41421356237310458
10
128.99883534828658
20
44.499999999999808
10
123.99883534828672
20
44.500000000000092
42
0.41421356237311158
0
CIRCLE
5
171
100
AcDbEntity
8
INTERIOR_PROFILES
100
AcDbCircle
10
-132.22599999999989
20
80.000000000000028
30
0
40
2.0999999999999375
210
0
220
0
230
-1
0
CIRCLE
5
172
100
AcDbEntity
8
INTERIOR_PROFILES
100
AcDbCircle
10
-179.63056333193182
20
17.368272016354492
30
0
40
2.0999999999999148
210
0
220
0
230
-1
0
CIRCLE
5
173
100
AcDbEntity
8
INTERIOR_PROFILES
100
AcDbCircle
10
-21.55274431599091
20
14.250000000000135
30
0
40
2.1250000000000568
210
0
220
0
230
-1
0
LWPOLYLINE
5
174
100
AcDbEntity
8
INTERIOR_PROFILES
100
AcDbPolyline
90
8
70
1
43
0.0
10
142.9988353482866
20
21.500000000000099
10
142.99883534828669
20
16.500000000000099
42
0.41421356237311158
10
145.99883534828672
20
13.500000000000032
10
150.99883534828652
20
13.499999999999961
42
0.41421356237311824
10
153.99883534828655
20
16.500000000000117
10
153.99883534828649
20
21.500000000000114
42
0.41421356237310503
10
150.99883534828658
20
24.499999999999833
10
145.99883534828672
20
24.500000000000117
42
0.41421356237311158
0
CIRCLE
5
175
100
AcDbEntity
8
INTERIOR_PROFILES
100
AcDbCircle
10
-94.725999999999885
20
135.00000000000006
30
0
40
5.7500000000000284
210
0
220
0
230
-1
0
LWPOLYLINE
5
176
100
AcDbEntity
8
INTERIOR_PROFILES
100
AcDbPolyline
90
8
70
1
43
0.0
10
142.9988353482866
20
61.500000000000099
42
-0.41421356237311158
10
145.99883534828672
20
64.500000000000114
10
150.99883534828658
20
64.499999999999829
42
-0.41421356237310542
10
153.99883534828649
20
61.500000000000114
10
153.99883534828655
20
56.500000000000121
42
-0.41421356237312196
10
150.99883534828649
20
53.499999999999957
10
145.99883534828672
20
53.500000000000028
42
-0.41421356237311158
10
142.99883534828669
20
56.500000000000099
0
CIRCLE
5
177
100
AcDbEntity
8
INTERIOR_PROFILES
100
AcDbCircle
10
-44.725999999999928
20
135.00000000000006
30
0
40
5.7500000000000284
210
0
220
0
230
-1
0
CIRCLE
5
178
100
AcDbEntity
8
INTERIOR_PROFILES
100
AcDbCircle
10
-119.72599999999989
20
135
30
0
40
5.7500000000000284
210
0
220
0
230
-1
0
LWPOLYLINE
5
179
100
AcDbEntity
8
INTERIOR_PROFILES
100
AcDbPolyline
90
8
70
1
43
0.0
10
103.99883534828659
20
21.500000000000114
42
-0.41421356237311158
10
106.99883534828669
20
24.500000000000131
10
111.99883534828656
20
24.499999999999847
42
-0.41421356237310503
10
114.99883534828646
20
21.500000000000128
10
114.99883534828653
20
16.500000000000131
42
-0.41421356237312001
10
111.99883534828649
20
13.499999999999975
10
106.9988353482867
20
13.500000000000046
42
-0.41421356237311174
10
103.99883534828666
20
16.500000000000117
0
ENDSEC
0
SECTION
2
OBJECTS
0
DICTIONARY
5
C
100
AcDbDictionary
3
ACAD_GROUP
350
D
3
ACAD_MLINESTYLE
350
17
0
DICTIONARY
5
D
100
AcDbDictionary
0
DICTIONARY
5
1A
330
C
100
AcDbDictionary
0
DICTIONARY
5
17
100
AcDbDictionary
0
ENDSEC
0
EOF
