0
SECTION
2
HEADER
9
$INSUNITS
70
4
9
$ACADVER
1
AC1014
9
$HANDSEED
5
FFFF
0
ENDSEC
0
SECTION
2
TABLES
0
TABLE
2
VPORT
5
8
100
AcDbSymbolTable
0
ENDTAB
0
TABLE
2
LTYPE
5
5
100
AcDbSymbolTable
0
LTYPE
5
14
100
AcDbSymbolTableRecord
100
AcDbLinetypeTableRecord
2
BYBLOCK
70
0
0
LTYPE
5
15
100
AcDbSymbolTableRecord
100
AcDbLinetypeTableRecord
2
BYLAYER
70
0
0
ENDTAB
0
TABLE
2
LAYER
5
2
100
AcDbSymbolTable
70
2
0
LAYER
5
50
100
AcDbSymbolTableRecord
100
AcDbLayerTableRecord
2
0
70
0
6
CONTINUOUS
0
ENDTAB
0
TABLE
2
STYLE
5
3
100
AcDbSymbolTable
70
1
0
STYLE
5
11
100
AcDbSymbolTableRecord
100
AcDbTextStyleTableRecord
2
STANDARD
70
0
0
ENDTAB
0
TABLE
2
VIEW
5
6
100
AcDbSymbolTable
70
0
0
ENDTAB
0
TABLE
2
UCS
5
7
100
AcDbSymbolTable
70
0
0
ENDTAB
0
TABLE
2
APPID
5
9
100
AcDbSymbolTable
70
2
0
APPID
5
12
100
AcDbSymbolTableRecord
100
AcDbRegAppTableRecord
2
ACAD
70
0
0
ENDTAB
0
TABLE
2
DIMSTYLE
5
A
100
AcDbSymbolTable
70
1
0
ENDTAB
0
TABLE
2
BLOCK_RECORD
5
1
100
AcDbSymbolTable
70
1
0
BLOCK_RECORD
5
1F
100
AcDbSymbolTableRecord
100
AcDbBlockTableRecord
2
*MODEL_SPACE
0
BLOCK_RECORD
5
1B
100
AcDbSymbolTableRecord
100
AcDbBlockTableRecord
2
*PAPER_SPACE
0
ENDTAB
0
ENDSEC
0
SECTION
2
BLOCKS
0
BLOCK
5
20
100
AcDbEntity
100
AcDbBlockBegin
2
*MODEL_SPACE
0
ENDBLK
5
21
100
AcDbEntity
100
AcDbBlockEnd
0
BLOCK
5
1C
100
AcDbEntity
100
AcDbBlockBegin
2
*PAPER_SPACE
0
ENDBLK
5
1D
100
AcDbEntity
100
AcDbBlockEnd
0
ENDSEC
0
SECTION
2
ENTITIES
0
LWPOLYLINE
5
100
100
AcDbEntity
8
OUTER_PROFILES
100
AcDbPolyline
90
13
70
1
43
0.0
10
223.8752067869311
20
-1.4210854715202004e-13
10
-3.5527136788005009e-14
20
-3.5527136788005009e-14
42
-0.4142135623730952
10
-10.000000000000036
20
9.9999999999999361
10
-10.000000000000071
20
136.19609103229573
42
-0.4142135623730947
10
-6.5005258827832755e-14
20
146.19609103229573
10
206.95199999999994
20
146.19609103229567
42
-0.41421356237309503
10
216.95199999999994
20
136.19609103229567
10
216.95200000000006
20
111.19609103229567
10
223.87520678693107
20
111.1960910322957
42
-0.99999999999999989
10
223.87520678693102
20
101.1960910322957
10
216.95200000000006
20
101.1960910322957
10
216.95200000000006
20
9.9999999999999289
10
223.8752067869311
20
9.9999999999999289
42
-0.99999999999999989
0
LWPOLYLINE
5
101
100
AcDbEntity
8
INTERIOR_PROFILES
100
AcDbPolyline
90
8
70
1
43
0.0
10
12.476000000000056
20
126.59804551614783
10
2.4760000000000204
20
116.59804551614781
10
2.4760000000000204
20
29.598045516147806
10
12.47600000000002
20
19.598045516147806
10
184.47600000000006
20
19.598045516147824
10
194.476
20
29.598045516147806
10
194.476
20
116.59804551614781
10
184.476
20
126.59804551614783
0
CIRCLE
5
102
100
AcDbEntity
8
INTERIOR_PROFILES
100
AcDbCircle
10
-2.4760000000000204
20
19.598045516147842
30
0
40
2.1000000000000085
210
0
220
0
230
-1
0
CIRCLE
5
103
100
AcDbEntity
8
INTERIOR_PROFILES
100
AcDbCircle
10
-194.476
20
19.598045516147824
30
0
40
2.1000000000000085
210
0
220
0
230
-1
0
CIRCLE
5
104
100
AcDbEntity
8
INTERIOR_PROFILES
100
AcDbCircle
10
-194.476
20
126.59804551614782
30
0
40
2.1000000000000085
210
0
220
0
230
-1
0
CIRCLE
5
105
100
AcDbEntity
8
INTERIOR_PROFILES
100
AcDbCircle
10
-223.8752067869311
20
4.9999999999998934
30
0
40
2.0999999999999375
210
0
220
0
230
-1
0
CIRCLE
5
106
100
AcDbEntity
8
INTERIOR_PROFILES
100
AcDbCircle
10
-223.87520678693105
20
106.1960910322957
30
0
40
2.0999999999999375
210
0
220
0
230
-1
0
CIRCLE
5
107
100
AcDbEntity
8
INTERIOR_PROFILES
100
AcDbCircle
10
-2.4760000000000559
20
126.59804551614785
30
0
40
2.0999999999999734
210
0
220
0
230
-1
0
LINE
5
108
100
AcDbEntity
8
BEND
100
AcDbLine
10
218.67560339346534
20
101.19609103229567
30
-3.3118648854473987e-14
11
218.67560339346534
21
111.1960910322957
31
-3.4109743929037728e-14
0
LINE
5
109
100
AcDbEntity
8
BEND
100
AcDbLine
10
218.67560339346556
20
-3.5527136788005009e-14
30
-3.2518097249658161e-14
11
218.67560339346556
21
9.9999999999999467
31
-3.3509192324221442e-14
0
LINE
5
110
100
AcDbEntity
8
BEND_EXTENT
100
AcDbLine
10
216.95200000000006
20
-7.1054273576010019e-14
30
-2.0796644298255089e-14
11
216.95200000000006
21
9.9999999999999289
31
-2.0796644298255098e-14
0
LINE
5
111
100
AcDbEntity
8
BEND_EXTENT
100
AcDbLine
10
216.95200000000006
20
101.1960910322957
30
-2.0796644298255171e-14
11
216.95200000000006
21
111.19609103229567
31
-2.0796644298255177e-14
0
LINE
5
112
100
AcDbEntity
8
BEND_EXTENT
100
AcDbLine
10
220.39920678693096
20
111.1960910322957
30
4.2988292080536974e-14
11
220.39920678693096
21
101.19609103229581
31
4.3265847836693282e-14
0
LINE
5
113
100
AcDbEntity
8
BEND_EXTENT
100
AcDbLine
10
220.39920678693107
20
9.9999999999999289
30
4.9649630228287977e-14
11
220.39920678693107
21
-1.4210854715202004e-13
31
4.9927185984444285e-14
0
ENDSEC
0
SECTION
2
OBJECTS
0
DICTIONARY
5
C
100
AcDbDictionary
3
ACAD_GROUP
350
D
3
ACAD_MLINESTYLE
350
17
0
DICTIONARY
5
D
100
AcDbDictionary
0
DICTIONARY
5
1A
330
C
100
AcDbDictionary
0
DICTIONARY
5
17
100
AcDbDictionary
0
ENDSEC
0
EOF
